<?xml version="1.0" standalone="no"?>
<!DOCTYPE svg PUBLIC "-//W3C//DTD SVG 20010904//EN"
 "http://www.w3.org/TR/2001/REC-SVG-20010904/DTD/svg10.dtd">
<svg version="1.0" xmlns="http://www.w3.org/2000/svg"
 width="128.000000pt" height="128.000000pt" viewBox="0 0 128.000000 128.000000"
 preserveAspectRatio="xMidYMid meet">
<metadata>
Created by potrace 1.11, written by Peter Selinger 2001-2013
</metadata>
<g transform="translate(0.000000,128.000000) scale(0.100000,-0.100000)"
fill="#000000" stroke="none">
<path d="M489 1261 c-36 -10 -91 -29 -121 -44 -54 -24 -168 -103 -168 -116 -1
-10 214 -431 220 -430 3 0 52 60 110 134 58 74 107 134 110 134 3 0 52 -60
110 -134 58 -74 107 -135 110 -135 3 0 33 56 67 124 l62 124 58 4 c32 1 79 2
105 0 46 -3 47 -4 34 -25 -13 -21 -29 -50 -144 -267 -25 -47 -64 -119 -87
-160 -22 -41 -49 -92 -58 -113 -10 -20 -21 -37 -25 -37 -4 1 -56 73 -116 160
-60 88 -112 160 -116 160 -6 0 -120 -162 -200 -282 -13 -21 -27 -38 -30 -38
-3 0 -18 24 -33 53 -14 28 -50 97 -80 152 -29 55 -88 168 -131 250 -44 83 -81
152 -83 155 -9 10 -32 -34 -55 -103 -32 -101 -31 -282 1 -377 73 -214 236
-370 446 -428 285 -78 600 63 733 328 54 109 71 188 67 315 -6 170 -67 308
-190 430 -76 76 -190 141 -290 165 -82 20 -231 20 -306 1z"/>
</g>
</svg>
