<svg width="264" height="48" viewBox="0 0 264 48" fill="none" xmlns="http://www.w3.org/2000/svg">
<path d="M0 33.4146H5.66686V24.0053H14.9056V33.4146H20.561V10H14.9056V19.3979H5.66686V10H0V33.4146Z" fill="#1D1D1F"/>
<path d="M29.0727 33.7119C31.5226 33.7119 33.2169 32.763 34.1786 30.968H34.316V33.4146H39.5821V21.4787C39.5821 17.763 36.2736 15.625 31.7974 15.625C27.0693 15.625 24.3904 18.003 23.9439 21.2043L29.107 21.3872C29.3475 20.2668 30.2748 19.5808 31.7516 19.5808C33.1254 19.5808 33.9954 20.2439 33.9954 21.4215V21.4787C33.9954 22.5534 32.8277 22.782 29.8283 23.045C26.2679 23.3422 23.2914 24.657 23.2914 28.5442C23.2914 32.0198 25.7069 33.7119 29.0727 33.7119ZM30.8014 30.0534C29.5077 30.0534 28.5919 29.436 28.5919 28.2698C28.5919 27.138 29.4848 26.452 31.0761 26.2119C32.1179 26.0633 33.4001 25.8346 34.0298 25.503V27.1723C34.0298 28.8872 32.5873 30.0534 30.8014 30.0534Z" fill="#1D1D1F"/>
<path d="M48.6033 23.3994C48.6148 21.3986 49.7825 20.2096 51.557 20.2096C53.3314 20.2096 54.3847 21.3758 54.3732 23.3194V33.4146H59.9714V22.2218C59.9828 18.266 57.5673 15.625 53.8695 15.625C51.2708 15.625 49.3017 16.9398 48.5232 19.0777H48.3286V15.8537H43.0052V33.4146H48.6033V23.3994Z" fill="#1D1D1F"/>
<path d="M69.8598 33.6662C72.5157 33.6662 74.0956 32.1913 74.8054 30.5678H74.9771V33.4146H80.518V10H74.9199V18.8605H74.8054C74.1414 17.2485 72.6073 15.625 69.8369 15.625C66.162 15.625 62.8306 18.4489 62.8306 24.6456C62.8306 30.625 65.9788 33.6662 69.8598 33.6662ZM71.806 29.3102C69.7338 29.3102 68.5776 27.4695 68.5776 24.6341C68.5776 21.8102 69.7224 19.9924 71.806 19.9924C73.8552 19.9924 75.0458 21.7645 75.0458 24.6341C75.0458 27.4809 73.8437 29.3102 71.806 29.3102Z" fill="#1D1D1F"/>
<path d="M87.4814 40C91.5112 40 93.5146 37.9649 94.4877 35.0953L101.116 15.8651L95.2204 15.8537L91.9347 28.3841H91.7516L88.5117 15.8537H82.6503L88.901 34.0549L88.6835 34.5808C88.1454 35.8956 86.9319 35.9184 85.2833 35.3811L84.0469 39.4398C84.8941 39.7828 86.142 40 87.4814 40Z" fill="#1D1D1F"/>
<path d="M111.929 33.4146C119.073 33.4146 123.503 29.013 123.503 21.6959C123.503 14.3902 119.073 10 111.918 10H103.263V33.4146H111.929ZM108.93 28.5899V14.8247H111.631C115.661 14.8247 117.825 16.654 117.825 21.6959C117.825 26.7607 115.661 28.5899 111.712 28.5899H108.93Z" fill="#1D1D1F"/>
<path d="M135.031 33.7462C139.645 33.7462 142.679 31.5168 143.32 28.064L138.18 27.9154C137.745 29.0816 136.6 29.7104 135.135 29.7104C132.982 29.7104 131.654 28.2812 131.654 26.1319V25.9832H143.377V24.5884C143.377 18.8034 139.851 15.625 134.86 15.625C129.548 15.625 126.136 19.2607 126.136 24.7027C126.136 30.3277 129.502 33.7462 135.031 33.7462ZM131.654 22.7363C131.734 20.987 133.12 19.6608 134.974 19.6608C136.817 19.6608 138.145 20.9413 138.168 22.7363H131.654Z" fill="#1D1D1F"/>
<path d="M151.193 33.7119C153.643 33.7119 155.338 32.763 156.299 30.968H156.437V33.4146H161.703V21.4787C161.703 17.763 158.394 15.625 153.918 15.625C149.19 15.625 146.511 18.003 146.065 21.2043L151.228 21.3872C151.468 20.2668 152.396 19.5808 153.872 19.5808C155.246 19.5808 156.116 20.2439 156.116 21.4215V21.4787C156.116 22.5534 154.948 22.782 151.949 23.045C148.389 23.3422 145.412 24.657 145.412 28.5442C145.412 32.0198 147.828 33.7119 151.193 33.7119ZM152.922 30.0534C151.629 30.0534 150.713 29.436 150.713 28.2698C150.713 27.138 151.606 26.452 153.197 26.2119C154.239 26.0633 155.521 25.8346 156.151 25.503V27.1723C156.151 28.8872 154.708 30.0534 152.922 30.0534Z" fill="#1D1D1F"/>
<path d="M170.724 10H165.126V33.4146H170.724V10Z" fill="#1D1D1F"/>
<path d="M182.507 33.7462C187.121 33.7462 190.155 31.5168 190.796 28.064L185.655 27.9154C185.22 29.0816 184.076 29.7104 182.61 29.7104C180.458 29.7104 179.13 28.2812 179.13 26.1319V25.9832H190.853V24.5884C190.853 18.8034 187.327 15.625 182.335 15.625C177.023 15.625 173.612 19.2607 173.612 24.7027C173.612 30.3277 176.978 33.7462 182.507 33.7462ZM179.13 22.7363C179.21 20.987 180.595 19.6608 182.45 19.6608C184.293 19.6608 185.621 20.9413 185.644 22.7363H179.13Z" fill="#1D1D1F"/>
<path d="M193.712 33.4146H199.31V23.8796C199.31 21.7873 200.799 20.3811 202.802 20.3811C203.466 20.3811 204.462 20.4954 205 20.6784V15.8194C204.531 15.6936 203.947 15.6136 203.432 15.6136C201.508 15.6136 199.974 16.734 199.333 19.0549H199.15V15.8537H193.712V33.4146Z" fill="#1D1D1F"/>
<rect x="213" y="0.5" width="51" height="45" rx="10" fill="#0057FF"/>
<path d="M225.233 31.5H237.051V28.2327H230.581V28.1262L232.491 26.2755C235.952 23.1065 236.856 21.4933 236.856 19.5689C236.856 16.5472 234.51 14.5 230.885 14.5C227.354 14.5 224.992 16.6373 224.999 20.052H228.655C228.655 18.5371 229.544 17.6609 230.869 17.6609C232.171 17.6609 233.114 18.5043 233.114 19.8882C233.114 21.1411 232.366 21.9928 231.056 23.2293L225.233 28.5848V31.5Z" fill="white"/>
<path d="M238.694 28.7158H246.404V31.5H250.091V28.7158H252.001V25.5222H250.091V14.7293H245.234L238.694 25.5549V28.7158ZM246.482 25.5222H242.529V25.3911L246.357 19.0202H246.482V25.5222Z" fill="white"/>
</svg>
