<?xml version="1.0" standalone="no"?>
<!DOCTYPE svg PUBLIC "-//W3C//DTD SVG 20010904//EN"
 "http://www.w3.org/TR/2001/REC-SVG-20010904/DTD/svg10.dtd">
<svg version="1.0" xmlns="http://www.w3.org/2000/svg"
 width="700.000000pt" height="700.000000pt" viewBox="0 0 700.000000 700.000000"
 preserveAspectRatio="xMidYMid meet">
<metadata>
Created by potrace 1.11, written by Peter Selinger 2001-2013
</metadata>
<g transform="translate(0.000000,700.000000) scale(0.100000,-0.100000)"
fill="#000000" stroke="none">
<path d="M3369 6996 c-2 -2 -42 -6 -88 -10 -631 -49 -1296 -305 -1816 -700
-202 -153 -412 -352 -560 -531 -28 -33 -58 -68 -67 -79 -9 -10 -53 -69 -97
-131 -74 -104 -109 -157 -184 -283 -37 -62 -197 -382 -191 -382 3 0 -2 -12
-10 -27 -56 -102 -174 -499 -211 -708 -23 -132 -36 -237 -50 -390 -6 -60 -6
-421 -1 -485 16 -198 59 -465 97 -605 6 -22 12 -44 13 -50 8 -36 44 -157 56
-190 4 -11 16 -42 25 -70 194 -555 548 -1086 976 -1462 283 -247 606 -456 909
-587 36 -16 79 -34 95 -41 288 -124 661 -215 1032 -252 153 -16 631 -7 728 12
11 3 38 7 60 10 606 84 1201 342 1695 736 168 134 300 262 489 474 32 37 177
229 218 290 167 248 315 544 407 810 l34 100 -966 3 c-912 2 -966 1 -981 -16
-9 -9 -33 -38 -53 -63 -140 -174 -368 -349 -587 -451 -84 -39 -288 -111 -347
-123 -177 -34 -223 -38 -379 -39 -196 -1 -243 4 -434 43 -154 32 -407 143
-561 247 -280 188 -500 453 -632 759 -41 96 -90 244 -102 309 -2 11 -7 39 -11
61 -4 22 -9 49 -11 60 -18 95 -24 329 -11 445 22 199 74 388 152 553 19 41 35
79 35 85 0 7 4 12 8 12 5 0 14 12 21 28 10 22 76 129 103 167 65 90 218 253
312 330 211 173 520 318 766 360 19 3 42 8 50 10 70 19 387 27 505 12 290 -36
571 -148 818 -324 83 -60 293 -259 342 -325 l27 -38 968 0 968 0 -13 43 c-90
294 -311 723 -499 972 -210 277 -410 486 -641 669 -33 26 -69 55 -80 64 -44
36 -295 201 -375 246 -275 155 -568 271 -888 351 -139 35 -151 37 -257 55 -33
5 -69 12 -80 14 -11 2 -51 7 -88 11 -37 3 -78 9 -90 11 -24 6 -543 15 -548 10z"/>
<path d="M6270 4069 c-271 -18 -482 -171 -576 -419 -26 -69 -28 -86 -28 -215
-1 -149 8 -192 62 -300 73 -148 226 -267 402 -314 98 -26 145 -32 260 -32 191
0 329 48 447 155 l48 44 -62 63 c-34 35 -78 82 -98 104 -26 29 -39 37 -49 30
-53 -40 -100 -65 -153 -85 -55 -20 -76 -22 -165 -18 -87 4 -112 9 -159 32 -85
42 -160 125 -183 202 l-7 21 473 0 473 0 11 39 c26 87 -6 255 -68 367 -81 145
-200 244 -355 296 -88 30 -155 37 -273 30z m162 -279 c79 -22 168 -118 188
-204 8 -35 7 -36 -24 -37 -48 0 -432 0 -513 0 -42 1 -73 5 -73 11 0 6 9 30 21
55 68 146 236 219 401 175z"/>
<path d="M4725 4056 c-65 -16 -155 -59 -208 -100 -23 -17 -46 -35 -52 -38 -6
-4 -10 20 -10 65 l0 72 -174 0 -175 0 0 -625 1 -625 181 -3 182 -2 0 345 c0
190 1 348 1 353 7 38 35 113 53 137 56 80 131 117 236 118 127 2 198 -38 239
-132 29 -67 29 -67 30 -468 l1 -353 180 0 180 0 0 420 c-1 382 -3 427 -20 496
-60 233 -234 354 -505 353 -49 0 -112 -6 -140 -13z"/>
<path d="M3088 4055 c-2 -2 -21 -5 -43 -8 -59 -8 -132 -34 -195 -69 -208 -115
-324 -333 -315 -590 6 -145 32 -240 94 -335 128 -195 347 -291 619 -271 305
22 539 208 606 480 16 65 22 213 11 269 -43 221 -194 402 -400 479 -66 24 -72
26 -164 41 -55 8 -205 11 -213 4z m222 -305 c64 -32 126 -96 157 -159 23 -46
28 -71 30 -142 2 -95 -9 -144 -45 -203 -52 -84 -95 -114 -222 -155 -8 -2 -41
-4 -73 -4 -107 1 -207 69 -263 181 -27 53 -29 65 -29 167 0 100 2 115 27 160
37 70 104 131 174 160 75 31 178 28 244 -5z"/>
</g>
</svg>
